<svg width="102px" height="114px" viewBox="39 45 102 114" version="1.1" xmlns="http://www.w3.org/2000/svg" xmlns:xlink="http://www.w3.org/1999/xlink">
    <defs></defs>
    <g id="desktop-logo" stroke="none" stroke-width="1" fill="none" fill-rule="evenodd" transform="translate(39.000000, 45.000000)">
        <path d="M2.24966667,68.7615937 C2.30573684,68.7615937 2.36329825,68.7553594 2.4205614,68.7425937 C2.83750877,68.6484844 3.09936842,68.236125 3.00542105,67.8210937 C2.20850877,64.3087656 1.80468421,60.68125 1.80468421,57.0394844 C1.80468421,44.8373281 6.35054386,33.1588594 14.6050877,24.1546406 C14.893193,23.8405469 14.8708246,23.3530781 14.5552807,23.066 C14.2388421,22.7789219 13.7488246,22.8014844 13.461614,23.115875 C4.94610526,32.4045 0.256192982,44.4519844 0.256192982,57.0394844 C0.256192982,60.79525 0.673140351,64.5370625 1.49510526,68.1604219 C1.57622807,68.5184531 1.89564912,68.7615937 2.24966667,68.7615937" id="Fill-1" fill="#231F20"></path>
        <path d="M99.8645614,57.0394844 C99.8645614,60.6770938 99.4601404,64.3043125 98.6623333,67.8199063 C98.568386,68.2349375 98.8302456,68.6472969 99.247193,68.7414063 C99.3047544,68.7541719 99.3620175,68.7604063 99.418386,68.7604063 C99.7721053,68.7604063 100.091526,68.5172656 100.172947,68.1592344 C100.995807,64.5323125 101.412754,60.7910938 101.412754,57.0394844 C101.412754,44.4549531 96.7222456,32.406875 88.2055439,23.1146875 C87.9168421,22.8005938 87.4271228,22.7777344 87.1118772,23.0648125 C86.7957368,23.3518906 86.7733684,23.8390625 87.0614737,24.1534531 C95.3175088,33.1612344 99.8645614,44.8402969 99.8645614,57.0394844" id="Fill-2" fill="#231F20"></path>
        <path d="M21.4984386,89.3011875 C21.5225965,89.2245937 21.5094737,89.140875 21.4626491,89.0755625 L20.6872105,87.9952344 C20.6204035,87.9023125 20.4990175,87.8643125 20.3913509,87.9037969 L9.163,91.9398125 L16.6092982,82.6312969 C16.6808772,82.5419375 16.6838596,82.4163594 16.6176491,82.3237344 L15.6599825,80.9892812 C15.5928772,80.8963594 15.472386,80.8595469 15.3647193,80.8969531 L4.10326316,84.8899219 L11.5814737,75.6262344 C11.6533509,75.536875 11.6569298,75.411 11.5901228,75.3177812 L10.8152807,74.2374531 C10.7681579,74.1721406 10.693,74.1323594 10.6124737,74.1302812 C10.5310526,74.1305781 10.4547018,74.1647187 10.4048947,74.2276562 L1.45335088,85.5344375 C1.38296491,85.6235 1.37998246,85.7484844 1.44589474,85.8408125 L2.3695614,87.1277656 C2.43636842,87.2206875 2.55596491,87.2583906 2.66482456,87.2197969 L13.9769825,83.1932812 L6.48177193,92.5392031 C6.41019298,92.6285625 6.40661404,92.7544375 6.47342105,92.8470625 L7.39708772,94.1337187 C7.44629825,94.2022969 7.5244386,94.2405938 7.60585965,94.2405938 C7.63389474,94.2405938 7.66282456,94.2361406 7.6905614,94.2263437 L21.3385789,89.4647656 C21.4149298,89.4386406 21.4739825,89.3777812 21.4984386,89.3011875" id="Fill-3" fill="#231F20"></path>
        <path d="M34.1434561,96.3392031 L26.7242982,92.2277812 C26.6649474,92.1954219 26.5951579,92.1868125 26.5295439,92.2055156 C26.4639298,92.2239219 26.4087544,92.2675625 26.3753509,92.3269375 L19.6221754,104.402328 C19.5532807,104.525531 19.5977193,104.680797 19.7217895,104.749672 L27.4150351,109.012797 C27.4535088,109.033875 27.4961579,109.045156 27.5397018,109.045156 C27.5632632,109.045156 27.5868246,109.041891 27.6097895,109.035062 C27.6754035,109.016656 27.7305789,108.973016 27.7639825,108.913641 L28.3363158,107.890312 C28.4049123,107.767109 28.3607719,107.611547 28.2367018,107.542969 L21.8986842,104.030937 L24.2816667,99.7695937 L29.9519123,102.911719 C30.0112632,102.944672 30.0813509,102.953281 30.1466667,102.934281 C30.2122807,102.915578 30.2674561,102.872234 30.3005614,102.812562 L30.8728947,101.789234 C30.9417895,101.666031 30.8973509,101.510766 30.7732807,101.441891 L25.1036316,98.3000625 L27.2575614,94.4487031 L33.3217895,97.8090312 C33.3814386,97.8416875 33.4515263,97.8505937 33.5168421,97.8312969 C33.5821579,97.8128906 33.6376316,97.76925 33.6707368,97.709875 L34.2430702,96.6865469 C34.3119649,96.5633437 34.2675263,96.4077812 34.1434561,96.3392031" id="Fill-4" fill="#231F20"></path>
        <path d="M47.2707368,112.19025 L41.124193,111.271719 L42.9733158,99.01375 C42.9834561,98.9466563 42.9661579,98.8780781 42.9258947,98.8240469 C42.8856316,98.7694219 42.8250877,98.7332031 42.7576842,98.7231094 L41.4773158,98.531625 C41.3329649,98.5093594 41.2062105,98.6067344 41.1856316,98.7462656 L39.1235614,112.415281 C39.1131228,112.482375 39.1304211,112.550656 39.1709825,112.604984 C39.2109474,112.659313 39.2717895,112.695531 39.3388947,112.705922 L47.019614,113.853938 C47.0324386,113.856016 47.0449649,113.856906 47.0577895,113.856906 C47.1123684,113.856906 47.1657544,113.839391 47.210193,113.806734 C47.2647719,113.766656 47.3011579,113.706391 47.3115965,113.639297 L47.4863684,112.480891 C47.5072456,112.341359 47.4109123,112.211328 47.2707368,112.19025" id="Fill-5" fill="#231F20"></path>
        <path d="M61.1457193,104.766594 C59.4167895,104.603906 57.9237719,104.462891 57.5727368,102.723797 C57.4242105,101.988438 57.581386,101.351938 58.0400877,100.831219 C58.4600175,100.354734 59.1245088,100.005609 59.9112807,99.8485625 C60.9688596,99.6362969 61.8337719,99.8746875 62.6092105,100.593719 C62.6590175,100.640031 62.7180702,100.668531 62.7935263,100.662 C62.8612281,100.659625 62.9256491,100.630531 62.9718772,100.580953 L63.9095614,99.5769219 C63.9566842,99.5264531 63.9814386,99.4590625 63.9778596,99.3901875 C63.9745789,99.3213125 63.9429649,99.2568906 63.8910702,99.2114688 C62.7425263,98.2053594 61.285,97.8589063 59.6163158,98.1914063 C58.3887368,98.4372188 57.3260877,99.0211719 56.6240175,99.8360938 C55.8405263,100.745719 55.5557018,101.867016 55.8005614,103.078563 C56.3970526,106.033063 58.7054737,106.278281 60.7418947,106.495 C62.4141579,106.672531 63.8585614,106.826016 64.1747018,108.392031 C64.4610175,109.811391 63.5072281,111.033031 61.8555439,111.363453 C60.5757719,111.620547 59.4645088,111.274688 58.6377719,110.362391 C58.5906491,110.310438 58.5241404,110.280156 58.4537544,110.278078 C58.3854561,110.278375 58.3153684,110.303609 58.2658596,110.353188 L57.2169298,111.399375 C57.1677193,111.448359 57.1405789,111.515156 57.1417719,111.584031 C57.1426667,111.6535 57.172193,111.718813 57.2228947,111.766313 C58.205614,112.681578 59.4167895,113.145594 60.8233158,113.145594 C61.2876842,113.145594 61.779193,113.094234 62.2844211,112.993297 C63.4729298,112.755797 64.5009825,112.164422 65.1788947,111.329016 C65.9289825,110.40425 66.1947193,109.266031 65.9468772,108.037859 C65.3667895,105.165 63.1242807,104.953328 61.1457193,104.766594" id="Fill-6" fill="#231F20"></path>
        <path d="M86.5213509,98.3861563 L85.1938596,98.3080781 C85.1231754,98.3048125 85.0536842,98.3288594 85.0020877,98.3775469 C84.9504912,98.4262344 84.9215614,98.4942188 84.9221579,98.564875 C84.9370702,100.360375 83.8046316,101.755688 82.8305614,102.404953 C81.8111579,103.084203 80.7398596,103.429172 79.6452982,103.429172 C77.8030351,103.429172 76.0708246,102.424547 74.8927544,100.672984 C73.9792281,99.3147813 73.5995614,97.7894375 73.8241404,96.3780938 C74.0588596,94.9023281 74.9172105,93.6331875 76.3061404,92.7072344 C77.4949474,91.914875 78.9861754,91.720125 80.2092807,92.2242187 C80.2766842,92.252125 80.3527368,92.2500469 80.4183509,92.218875 C80.4836667,92.1874062 80.5331754,92.1298125 80.5537544,92.0606406 L80.9426667,90.744 C80.9820351,90.6115937 80.9080702,90.4717656 80.7762456,90.4293125 C78.963807,89.8403125 77.1191579,90.1413437 75.3660702,91.3095469 C73.6120877,92.4786406 72.4525088,94.1610312 72.0999825,96.0461875 C71.7504386,97.9185781 72.2088421,99.9171406 73.3907895,101.674047 C74.8766491,103.883094 77.1134912,105.149563 79.528386,105.149563 C80.9820351,105.149563 82.4491053,104.684063 83.7709298,103.802938 C85.6707544,102.536469 86.6773333,100.803016 86.7626316,98.6512656 C86.7682982,98.5120313 86.6609298,98.3944688 86.5213509,98.3861563" id="Fill-7" fill="#231F20"></path>
        <path d="M101.828509,82.4315 L90.064807,75.0871094 C90.0075439,75.0508906 89.9374561,75.0396094 89.8712456,75.0541562 C89.8050351,75.0695937 89.7474737,75.1102656 89.711386,75.1675625 L89.0236316,76.2591719 C88.9481754,76.3785156 88.9845614,76.5364531 89.1047544,76.6112656 L94.0711404,79.7118281 L90.2169123,85.8286406 L85.2502281,82.7277812 C85.1923684,82.6915625 85.1228772,82.6799844 85.0563684,82.695125 C84.9904561,82.7105625 84.9325965,82.7509375 84.8965088,82.8085312 L84.2087544,83.8998437 C84.1335965,84.0194844 84.1699825,84.177125 84.2898772,84.2519375 L96.0532807,91.5963281 C96.0944386,91.6221562 96.1418596,91.6355156 96.1895789,91.6355156 C96.2089649,91.6355156 96.2280526,91.6334375 96.2471404,91.6292812 C96.3130526,91.6138437 96.3709123,91.5731719 96.407,91.515875 L97.0944561,90.4242656 C97.1699123,90.3049219 97.1335263,90.1469844 97.0136316,90.0721719 L91.6484912,86.7225312 L95.5027193,80.6057187 L100.868158,83.9556562 C100.926018,83.991875 100.996404,84.0040469 101.061719,83.9883125 C101.12793,83.972875 101.185491,83.9325 101.221579,83.8749062 L101.909333,82.7835937 C101.984789,82.6639531 101.948404,82.5063125 101.828509,82.4315" id="Fill-8" fill="#231F20"></path>
        <path d="M22.2604561,18.5674531 L20.9794912,11.4466094 L26.9482807,15.5149844 L22.2604561,18.5674531 L22.2604561,18.5674531 Z M21.6141579,24.9565 C21.6281754,25.0414062 21.6848421,25.1135469 21.7638772,25.1476875 C21.7969825,25.1622344 21.8318772,25.1693594 21.8667719,25.1693594 C21.9159825,25.1693594 21.9648947,25.1551094 22.0072456,25.1275 L23.1396842,24.3900625 C23.2258772,24.3339531 23.2697193,24.232125 23.2518246,24.1314844 L22.5762982,20.3718594 L28.4442807,16.5507812 L31.5842105,18.7016406 C31.669807,18.7604219 31.7831404,18.7619062 31.8699298,18.7049062 L33.084386,17.9143281 C33.1565614,17.8677187 33.2001053,17.7878594 33.2007018,17.7023594 C33.2012982,17.6168594 33.1589474,17.5367031 33.0873684,17.4889062 L20.5962456,9.108125 C20.5109474,9.05053125 20.3985088,9.04964062 20.312614,9.10604687 L19.1965789,9.83309375 C19.1112807,9.88860937 19.0668421,9.98925 19.0841404,10.0892969 L21.6141579,24.9565 L21.6141579,24.9565 Z" id="Fill-9" fill="#231F20"></path>
        <path d="M48.2561404,0.12646875 C48.2012632,0.08609375 48.1332632,0.0700625 48.0655614,0.07896875 L46.785193,0.268078125 C46.6447193,0.288859375 46.5480877,0.418890625 46.5689649,0.558421875 L48.2430175,11.7805938 L38.609386,1.58739063 C38.5518246,1.52623438 38.4671228,1.49803125 38.384807,1.50960938 L36.735807,1.75334375 C36.5953333,1.774125 36.4987018,1.90415625 36.5195789,2.0436875 L38.5592807,15.7159688 C38.5691228,15.7830625 38.6055088,15.8433281 38.6600877,15.8837031 C38.7045263,15.9166563 38.7582105,15.933875 38.8130877,15.933875 C38.825614,15.933875 38.8378421,15.9329844 38.8503684,15.9312031 L40.1307368,15.7417969 C40.2712105,15.7213125 40.3678421,15.5912813 40.3469649,15.45175 L38.6732105,4.22928125 L48.3068421,14.4224844 C48.3644035,14.4833438 48.4482105,14.5109531 48.5311228,14.5002656 L50.1804211,14.2562344 C50.3205965,14.23575 50.4175263,14.1057188 50.3963509,13.9661875 L48.3569474,0.29390625 C48.346807,0.227109375 48.3104211,0.166546875 48.2561404,0.12646875" id="Fill-10" fill="#231F20"></path>
        <path d="M71.2335789,10.5693437 L66.8108947,9.212625 C66.7467719,9.19273437 66.6754912,9.19926562 66.6152456,9.23103125 C66.5552982,9.2625 66.5102632,9.31682812 66.4899825,9.38154687 L66.1437193,10.5007656 C66.1022632,10.6355469 66.1780175,10.7786406 66.3137193,10.8202031 L69.2541228,11.7221094 L67.9991053,15.7759375 C67.0026667,15.9787031 65.8350351,15.8581719 64.3226316,15.3941562 C61.1567544,14.4230781 59.6556842,11.4519531 60.6721053,8.1688125 C61.4767719,5.569375 63.4944035,3.95496875 65.9382281,3.95496875 C66.5365088,3.95496875 67.1544737,4.05145312 67.7754211,4.24204687 C69.1658421,4.66865625 70.5154035,5.79767187 70.9848421,6.92698437 C71.0125789,6.994375 71.0680526,7.046625 71.1372456,7.070375 C71.2058421,7.09442187 71.2818947,7.08789062 71.346614,7.0525625 L72.5348246,6.395875 C72.6562105,6.32878125 72.7018421,6.17796875 72.6380175,6.0550625 C71.7805614,4.41096875 70.3117018,3.25998437 68.2728947,2.63476562 C67.4679298,2.38776562 66.6584912,2.26248437 65.8669474,2.26248437 C62.6238246,2.26248437 59.9715263,4.32279687 58.9446667,7.63889062 C57.6353684,11.8684687 59.6419649,15.7186406 63.8251579,17.0017344 C65.0321579,17.3719375 66.1517719,17.5518437 67.2475263,17.5518437 C67.9364737,17.5518437 68.6182632,17.4773281 69.2741053,17.330375 C69.3638772,17.3101875 69.4357544,17.2436875 69.4628947,17.1564062 L71.4032807,10.8887812 C71.4450351,10.754 71.3689825,10.6109062 71.2335789,10.5693437" id="Fill-11" fill="#231F20"></path>
        <path d="M76.9795789,23.5460469 C77.025807,23.5804844 77.0800877,23.5974062 77.1337719,23.5974062 C77.211614,23.5974062 77.2882632,23.562375 77.3386667,23.495875 L85.6996842,12.4598437 C85.7408421,12.4058125 85.7587368,12.3375312 85.749193,12.2704375 C85.7396491,12.2033437 85.7038596,12.1427812 85.6495789,12.1021094 L84.6158596,11.3260781 C84.5034211,11.2414687 84.3420702,11.2640312 84.2567719,11.37625 L75.8954561,22.4122812 C75.8545965,22.4663125 75.8367018,22.5345937 75.8462456,22.6016875 C75.8557895,22.6684844 75.8915789,22.7293437 75.9458596,22.7700156 L76.9795789,23.5460469" id="Fill-12" fill="#231F20"></path>
    </g>
</svg>
