<svg viewBox="688 177 32 32" version="1.1" xmlns="http://www.w3.org/2000/svg" xmlns:xlink="http://www.w3.org/1999/xlink">
    <defs></defs>
    <g id="instagram" stroke="none" stroke-width="1" fill="none" fill-rule="evenodd" transform="translate(688.000000, 177.000000)">
        <rect id="Rectangle" x="0" y="0" width="32" height="32"></rect>
        <circle id="Oval" fill-opacity="0.5" fill="#E78289" cx="16" cy="16" r="16"></circle>
        <path d="M20.4616437,8.72727273 L11.5383563,8.72727273 C9.98871119,8.72727273 8.72727273,9.98785598 8.72727273,11.5383563 L8.72727273,20.4616437 C8.72727273,22.012144 9.98871119,23.2727273 11.5383563,23.2727273 L20.4616437,23.2727273 C22.0112888,23.2727273 23.2727273,22.012144 23.2727273,20.4616437 L23.2727273,11.5383563 C23.2727273,9.98785598 22.0112888,8.72727273 20.4616437,8.72727273 L20.4616437,8.72727273 Z M21.2681091,10.4043445 L21.589669,10.4026341 L21.589669,12.8682118 L19.1317882,12.8759087 L19.1232361,10.410331 L21.2681091,10.4043445 L21.2681091,10.4043445 Z M13.9243992,14.5067989 C14.3896348,13.8619687 15.1456427,13.4394937 16,13.4394937 C16.8543573,13.4394937 17.6103652,13.8619687 18.0756008,14.5067989 C18.3792012,14.9275635 18.5605063,15.4424014 18.5605063,16 C18.5605063,17.4111007 17.4119559,18.5596511 16,18.5596511 C14.5888993,18.5596511 13.4403489,17.4111007 13.4403489,16 C13.4403489,15.4424014 13.621654,14.9275635 13.9243992,14.5067989 L13.9243992,14.5067989 Z M21.8556401,20.4616437 C21.8556401,21.2304798 21.2304798,21.8556401 20.4616437,21.8556401 L11.5383563,21.8556401 C10.7695202,21.8556401 10.1443599,21.2304798 10.1443599,20.4616437 L10.1443599,14.5067989 L12.3165997,14.5067989 C12.1284529,14.9686137 12.0232618,15.4723339 12.0232618,16 C12.0232618,18.1927649 13.8072351,19.9775934 16,19.9775934 C18.1936201,19.9775934 19.9775934,18.1927649 19.9775934,16 C19.9775934,15.4723339 19.8706919,14.9686137 19.6842555,14.5067989 L21.8556401,14.5067989 L21.8556401,20.4616437 L21.8556401,20.4616437 Z" id="Shape" fill="#FFFFFF"></path>
    </g>
</svg>
