<svg viewBox="687 133 32 32" version="1.1" xmlns="http://www.w3.org/2000/svg" xmlns:xlink="http://www.w3.org/1999/xlink">
    <defs></defs>
    <g id="mail" stroke="none" stroke-width="1" fill="none" fill-rule="evenodd" transform="translate(687.000000, 133.000000)">
        <rect id="Rectangle" x="0" y="0" width="32" height="32"></rect>
        <circle id="Oval" fill-opacity="0.5" fill="#E78289" cx="16" cy="16" r="16"></circle>
        <path d="M10.3437123,14.138493 C10.5208219,14.2541451 11.0546438,14.5977284 11.945274,15.1689768 C12.8359041,15.7402251 13.5181644,16.1801112 13.9921507,16.4885462 C14.0442192,16.5223631 14.1548767,16.595855 14.3241233,16.7091106 C14.4933699,16.8224549 14.6340411,16.9141422 14.7459452,16.983995 C14.8579452,17.0538478 14.9933425,17.1322213 15.1522329,17.2189382 C15.3111233,17.305655 15.4609041,17.3708036 15.6014795,17.4140289 C15.7421507,17.4575204 15.8723699,17.4790887 15.992137,17.4790887 L16,17.4790887 L16.007863,17.4790887 C16.1276301,17.4790887 16.2578493,17.4575204 16.3985205,17.4140289 C16.5390959,17.3708036 16.6889726,17.3055663 16.8477671,17.2189382 C17.0065616,17.1321326 17.1419589,17.0538478 17.2539589,16.983995 C17.3659589,16.9141422 17.5065342,16.8224549 17.6757808,16.7091106 C17.8450274,16.5957662 17.9557808,16.5223631 18.0078493,16.4885462 C18.4869178,16.1800224 19.7057808,15.3966418 21.6640548,14.1383155 C22.0442603,13.8925438 22.3618493,13.5960024 22.6171096,13.2488687 C22.8724658,12.9019126 23,12.5379148 23,12.157053 C23,11.8388546 22.8762055,11.5664554 22.6288082,11.3398555 C22.381411,11.1132556 22.0883699,11 21.7499726,11 L10.2499315,11 C9.84891781,11 9.54034247,11.1253267 9.32420548,11.3759801 C9.10806849,11.6267223 9,11.9401278 9,12.3161079 C9,12.6198387 9.14326027,12.9489545 9.42968493,13.3032776 C9.71610959,13.6576006 10.0208493,13.9360354 10.3437123,14.138493 Z M22.2186849,14.912199 C20.5104932,15.9823577 19.2134795,16.8140229 18.3282192,17.407017 C18.0313425,17.6094746 17.7904658,17.7674644 17.6054932,17.8806312 C17.4206164,17.9939755 17.1745616,18.1096276 16.8672329,18.2277649 C16.56,18.3459021 16.2735753,18.4049264 16.0079589,18.4049264 L16,18.4049264 L15.992137,18.4049264 C15.7265205,18.4049264 15.44,18.3459021 15.1327671,18.2277649 C14.8255342,18.1096276 14.5793836,17.9939755 14.3945068,17.8806312 C14.2096301,17.7674644 13.9687534,17.6094746 13.6718767,17.407017 C12.9687123,16.9297637 11.6744795,16.0980985 9.78908219,14.912199 C9.49220548,14.7290907 9.22917808,14.5192661 9,14.2830803 L9,20.0246764 C9,20.3429636 9.12235616,20.615274 9.36716438,20.8418739 C9.6119726,21.0685626 9.90626027,21.1818182 10.2500274,21.1818182 L21.7500685,21.1818182 C22.0937397,21.1818182 22.3880274,21.0685626 22.6328356,20.8418739 C22.8777397,20.6151853 23,20.3429636 23,20.0246764 L23,14.2830803 C22.776,14.5143844 22.5156575,14.724209 22.2186849,14.912199 Z" id="Shape" fill="#FFFFFF"></path>
    </g>
</svg>
