<svg viewBox="0 0 191 19" version="1.1" xmlns="http://www.w3.org/2000/svg" xmlns:xlink="http://www.w3.org/1999/xlink">
    <defs></defs>
    <path d="M10.848,1.08 L8.112,1.08 L0.72,18 L3.744,18 L5.472,13.944 L13.416,13.944 L15.12,18 L18.24,18 L10.848,1.08 Z M12.336,11.328 L6.552,11.328 L9.432,4.608 L12.336,11.328 Z M34.056,12.816 L25.056,1.2 L22.32,1.2 L22.32,18 L25.224,18 L25.224,6.048 L34.488,18 L36.96,18 L36.96,1.2 L34.056,1.2 L34.056,12.816 Z M57.4560001,15.672 L57.4560001,8.616 L50.3040001,8.616 L50.3040001,11.184 L54.6000001,11.184 L54.6000001,14.328 C53.5680001,15.096 52.1280001,15.6 50.5440001,15.6 C47.1120001,15.6 44.8320001,13.056 44.8320001,9.576 C44.8320001,6.312 47.1840001,3.624 50.2800001,3.624 C52.4160001,3.624 53.6880001,4.32 54.9840001,5.424 L56.8560001,3.192 C55.1280001,1.728 53.3280001,0.912 50.4000001,0.912 C45.3360001,0.912 41.7360001,4.896 41.7360001,9.624 C41.7360001,14.544 45.1920001,18.288 50.4480001,18.288 C53.4240001,18.288 55.8000001,17.088 57.4560001,15.672 L57.4560001,15.672 Z M62.6640001,1.2 L62.6640001,18 L65.6160001,18 L65.6160001,1.2 L62.6640001,1.2 Z M85.6080002,13.656 L81.6000002,1.2 L78.4080002,1.2 L84.2640002,18.12 L86.8080002,18.12 L90.9360002,6.048 L95.0640002,18.12 L97.6080002,18.12 L103.464,1.2 L100.368,1.2 L96.3600002,13.656 L92.2320002,1.152 L89.7360002,1.152 L85.6080002,13.656 Z M120.144,1.2 L107.688,1.2 L107.688,18 L120.264,18 L120.264,15.36 L110.64,15.36 L110.64,10.848 L119.064,10.848 L119.064,8.208 L110.64,8.208 L110.64,3.84 L120.144,3.84 L120.144,1.2 Z M124.968,18 L136.752,18 L136.752,15.312 L127.92,15.312 L127.92,1.2 L124.968,1.2 L124.968,18 Z M143.52,5.592 C143.52,4.464 144.528,3.576 146.256,3.576 C147.792,3.576 149.304,4.176 150.816,5.304 L152.4,3.072 C150.696,1.704 148.752,0.96 146.304,0.96 C142.968,0.96 140.568,2.928 140.568,5.856 C140.568,8.976 142.584,10.032 146.16,10.896 C149.28,11.616 149.952,12.264 149.952,13.488 C149.952,14.784 148.8,15.624 146.976,15.624 C144.888,15.624 143.28,14.832 141.672,13.44 L139.896,15.552 C141.912,17.352 144.336,18.24 146.904,18.24 C150.432,18.24 152.904,16.368 152.904,13.2 C152.904,10.392 151.056,9.12 147.504,8.256 C144.288,7.488 143.52,6.912 143.52,5.592 L143.52,5.592 Z M172.2,15.312 L170.304,13.392 C168.864,14.736 167.544,15.576 165.48,15.576 C162.264,15.576 159.936,12.888 159.936,9.576 C159.936,6.264 162.264,3.624 165.48,3.624 C167.4,3.624 168.84,4.464 170.184,5.712 L172.08,3.528 C170.472,1.992 168.6,0.912 165.504,0.912 C160.416,0.912 156.84,4.824 156.84,9.624 C156.84,14.472 160.488,18.288 165.384,18.288 C168.528,18.288 170.448,17.136 172.2,15.312 L172.2,15.312 Z M187.464,10.92 L187.464,18 L190.416,18 L190.416,1.2 L187.464,1.2 L187.464,8.184 L179.448,8.184 L179.448,1.2 L176.496,1.2 L176.496,18 L179.448,18 L179.448,10.92 L187.464,10.92 Z" id="ANGI-WELSCH" stroke="#231F20" stroke-width="0.8" fill="none"></path>
</svg>
