<svg viewBox="689 221 32 32" version="1.1" xmlns="http://www.w3.org/2000/svg" xmlns:xlink="http://www.w3.org/1999/xlink">
    <defs></defs>
    <g id="tumblr-copy" stroke="none" stroke-width="1" fill="none" fill-rule="evenodd" transform="translate(689.000000, 221.000000)">
        <rect id="Rectangle" x="0" y="0" width="32" height="32"></rect>
        <circle id="Oval" fill-opacity="0.5" fill="#E78289" cx="16" cy="16" r="16"></circle>
        <path d="M16.3508099,8 L16.3508099,11.8204444 L20.085686,11.8204444 L20.085686,14.1937778 L16.3508099,14.1937778 L16.3508099,18.0702222 C16.3508099,18.9475556 16.3989421,19.5102222 16.4952066,19.7573333 C16.5914711,20.008 16.7710413,20.2062222 17.0357686,20.3546667 C17.382876,20.5555556 17.7808926,20.6551111 18.2298182,20.6551111 C19.0267769,20.6551111 19.8191074,20.4053333 20.6077355,19.9084444 L20.6077355,22.2942222 C19.9348099,22.5964444 19.3266777,22.8106667 18.7814876,22.9333333 C18.2353719,23.0568889 17.6457521,23.1173333 17.0126281,23.1173333 C16.2915702,23.1173333 15.6556694,23.0302222 15.1030744,22.856 C14.5504793,22.68 14.0784132,22.4328889 13.6887273,22.1093333 C13.2981157,21.7866667 13.0259835,21.4417778 12.8760331,21.0782222 C12.725157,20.7146667 12.6501818,20.1875556 12.6501818,19.496 L12.6501818,14.1937778 L10.9090909,14.1937778 L10.9090909,12.0542222 C11.5292562,11.8613333 12.0577851,11.584 12.4993058,11.2248889 C12.9389752,10.8648889 13.2944132,10.432 13.5600661,9.92622222 C13.8266446,9.42222222 14.010843,8.77955556 14.1117355,8 L16.3508099,8" id="Shape" fill="#FFFFFF"></path>
    </g>
</svg>
